<?xml version="1.0" encoding="UTF-8"?>
<!DOCTYPE svg PUBLIC "-//W3C//DTD SVG 1.1//EN" "http://www.w3.org/Graphics/SVG/1.1/DTD/svg11.dtd">
<svg xmlns="http://www.w3.org/2000/svg" version="1.1" width="499px" height="161px" style="shape-rendering:geometricPrecision; text-rendering:geometricPrecision; image-rendering:optimizeQuality; fill-rule:evenodd; clip-rule:evenodd" xmlns:xlink="http://www.w3.org/1999/xlink">
<g><path style="opacity:0.516" fill="#646464" d="M 56.5,55.5 C 54.6112,54.2584 52.6112,54.2584 50.5,55.5C 51.1522,54.2749 52.3189,53.6083 54,53.5C 55.1667,53.8333 56.3333,54.1667 57.5,54.5C 57.3764,55.1067 57.0431,55.44 56.5,55.5 Z"/></g>
<g><path style="opacity:0.999" fill="#dcdcdc" d="M 56.5,55.5 C 53.1667,68.1667 49.8333,80.8333 46.5,93.5C 44.1432,93.6633 41.8098,93.4966 39.5,93C 43.2644,80.5391 46.931,68.0391 50.5,55.5C 52.6112,54.2584 54.6112,54.2584 56.5,55.5 Z"/></g>
<g><path style="opacity:0.787" fill="#8d8d8d" d="M 99.5,60.5 C 105.31,59.5104 111.31,59.1771 117.5,59.5C 117.5,61.1667 117.5,62.8333 117.5,64.5C 113.167,64.5 108.833,64.5 104.5,64.5C 108.298,63.5166 112.298,63.1832 116.5,63.5C 116.5,62.5 116.5,61.5 116.5,60.5C 110.833,60.5 105.167,60.5 99.5,60.5 Z"/></g>
<g><path style="opacity:0.997" fill="#d1d1d1" d="M 178.5,64.5 C 177.448,66.256 175.781,66.9227 173.5,66.5C 171.033,62.7368 168.7,62.7368 166.5,66.5C 166.608,67.4419 166.941,68.2753 167.5,69C 174.28,69.6953 178.613,73.1953 180.5,79.5C 178.229,86.2168 173.563,88.7168 166.5,87C 161.49,85.7067 159.49,82.7067 160.5,78C 163.853,77.1085 166.187,78.2752 167.5,81.5C 173.552,83.1361 174.885,81.3028 171.5,76C 167.375,75.2963 163.875,73.463 161,70.5C 159.728,63.4247 162.728,59.4247 170,58.5C 174.102,58.9466 176.935,60.9466 178.5,64.5 Z"/></g>
<g><path style="opacity:0.998" fill="#fdfdfd" d="M 99.5,60.5 C 105.167,60.5 110.833,60.5 116.5,60.5C 116.5,61.5 116.5,62.5 116.5,63.5C 112.298,63.1832 108.298,63.5166 104.5,64.5C 104.5,66.5 104.5,68.5 104.5,70.5C 102.833,69.1667 101.167,67.8333 99.5,66.5C 99.5,64.5 99.5,62.5 99.5,60.5 Z"/></g>
<g><path style="opacity:0.997" fill="#e7e7e7" d="M 143.5,76.5 C 143.783,77.2891 144.283,77.9558 145,78.5C 145.5,72.1754 145.666,65.8421 145.5,59.5C 147.167,59.5 148.833,59.5 150.5,59.5C 150.5,68.5 150.5,77.5 150.5,86.5C 148.473,86.6621 146.473,86.4955 144.5,86C 140.543,80.5873 136.71,75.0873 133,69.5C 132.501,75.1569 132.334,80.8236 132.5,86.5C 130.833,86.5 129.167,86.5 127.5,86.5C 127.5,77.5 127.5,68.5 127.5,59.5C 129.604,59.2011 131.604,59.5344 133.5,60.5C 137.282,65.6024 140.616,70.9357 143.5,76.5 Z"/></g>
<g><path style="opacity:0.421" fill="#717171" d="M 145.5,59.5 C 145.666,65.8421 145.5,72.1754 145,78.5C 144.283,77.9558 143.783,77.2891 143.5,76.5C 144.167,70.8333 144.833,65.1667 145.5,59.5 Z"/></g>
<g><path style="opacity:0.826" fill="#888888" d="M 195.5,78.5 C 194.51,72.69 194.177,66.69 194.5,60.5C 193.167,60.5 191.833,60.5 190.5,60.5C 190.5,67.1667 190.5,73.8333 190.5,80.5C 189.509,73.6866 189.175,66.6866 189.5,59.5C 191.5,59.5 193.5,59.5 195.5,59.5C 195.5,65.8333 195.5,72.1667 195.5,78.5 Z"/></g>
<g><path style="opacity:0.998" fill="#dcdcdc" d="M 190.5,80.5 C 190.5,73.8333 190.5,67.1667 190.5,60.5C 191.833,60.5 193.167,60.5 194.5,60.5C 194.177,66.69 194.51,72.69 195.5,78.5C 198.072,83.1761 201.238,83.5095 205,79.5C 205.5,72.8417 205.666,66.175 205.5,59.5C 207.5,59.5 209.5,59.5 211.5,59.5C 211.896,67.253 211.396,74.9196 210,82.5C 204.873,87.9944 199.039,88.8278 192.5,85C 191.418,83.6703 190.751,82.1703 190.5,80.5 Z"/></g>
<g><path style="opacity:0.666" fill="#a6a6a6" d="M 236.5,60.5 C 231.833,60.5 227.167,60.5 222.5,60.5C 222.5,69.1667 222.5,77.8333 222.5,86.5C 221.507,77.6822 221.173,68.6822 221.5,59.5C 226.695,59.1795 231.695,59.5128 236.5,60.5 Z"/></g>
<g><path style="opacity:0.999" fill="#ececec" d="M 236.5,60.5 C 243.081,65.361 243.081,70.5277 236.5,76C 238.294,79.0877 239.961,82.2544 241.5,85.5C 239.579,86.641 237.579,86.8077 235.5,86C 233.693,82.8855 232.027,79.7188 230.5,76.5C 229.432,75.5655 228.099,75.2322 226.5,75.5C 226.5,79.1667 226.5,82.8333 226.5,86.5C 225.167,86.5 223.833,86.5 222.5,86.5C 222.5,77.8333 222.5,69.1667 222.5,60.5C 227.167,60.5 231.833,60.5 236.5,60.5 Z M 233.5,64.5 C 234.947,65.1342 235.613,66.3009 235.5,68C 235.613,69.6991 234.947,70.8658 233.5,71.5C 231.5,71.5 229.5,71.5 227.5,71.5C 227.5,69.1667 227.5,66.8333 227.5,64.5C 229.5,64.5 231.5,64.5 233.5,64.5 Z"/></g>
<g><path style="opacity:0.904" fill="#b7b7b7" d="M 256.5,64.5 C 260.298,63.5166 264.298,63.1832 268.5,63.5C 268.5,62.5 268.5,61.5 268.5,60.5C 263.167,60.5 257.833,60.5 252.5,60.5C 252.5,69.1667 252.5,77.8333 252.5,86.5C 251.507,77.6822 251.173,68.6822 251.5,59.5C 257.5,59.5 263.5,59.5 269.5,59.5C 269.5,61.1667 269.5,62.8333 269.5,64.5C 265.167,64.5 260.833,64.5 256.5,64.5 Z"/></g>
<g><path style="opacity:0.997" fill="#fcfcfc" d="M 256.5,64.5 C 256.5,66.5 256.5,68.5 256.5,70.5C 259.962,71.4816 263.629,71.815 267.5,71.5C 267.5,72.5 267.5,73.5 267.5,74.5C 263.629,74.185 259.962,74.5184 256.5,75.5C 256.5,77.8333 256.5,80.1667 256.5,82.5C 260.833,82.5 265.167,82.5 269.5,82.5C 269.5,83.8333 269.5,85.1667 269.5,86.5C 263.833,86.5 258.167,86.5 252.5,86.5C 252.5,77.8333 252.5,69.1667 252.5,60.5C 257.833,60.5 263.167,60.5 268.5,60.5C 268.5,61.5 268.5,62.5 268.5,63.5C 264.298,63.1832 260.298,63.5166 256.5,64.5 Z"/></g>
<g><path style="opacity:0.997" fill="#e2e2e2" d="M 294.5,59.5 C 299.511,59.3341 304.511,59.5007 309.5,60C 315.15,63.412 315.817,67.5787 311.5,72.5C 315.075,76.3679 315.408,80.5346 312.5,85C 306.621,86.4101 300.621,86.9101 294.5,86.5C 294.5,77.5 294.5,68.5 294.5,59.5 Z M 299.5,64.5 C 302.187,64.3359 304.854,64.5026 307.5,65C 308.833,66.6667 308.833,68.3333 307.5,70C 304.854,70.4974 302.187,70.6641 299.5,70.5C 299.5,68.5 299.5,66.5 299.5,64.5 Z M 299.5,75.5 C 302.187,75.3359 304.854,75.5026 307.5,76C 310.033,78.321 309.699,80.321 306.5,82C 304.19,82.4966 301.857,82.6633 299.5,82.5C 299.5,80.1667 299.5,77.8333 299.5,75.5 Z"/></g>
<g><path style="opacity:0.997" fill="#dadada" d="M 322.5,59.5 C 324.527,59.3379 326.527,59.5045 328.5,60C 330.476,63.4526 332.309,66.9526 334,70.5C 335.706,66.9212 337.539,63.4212 339.5,60C 341.579,59.1923 343.579,59.359 345.5,60.5C 342.921,65.9918 340.088,71.3252 337,76.5C 336.502,79.8168 336.335,83.1501 336.5,86.5C 334.833,86.5 333.167,86.5 331.5,86.5C 331.665,83.1501 331.498,79.8168 331,76.5C 327.628,71.0901 324.795,65.4235 322.5,59.5 Z"/></g>
<g><path style="opacity:0.998" fill="#dedede" d="M 376.5,59.5 C 378.924,59.1924 381.257,59.5258 383.5,60.5C 386.544,69.1354 389.877,77.6354 393.5,86C 391.19,86.4966 388.857,86.6633 386.5,86.5C 386.167,84.5 385.833,82.5 385.5,80.5C 382.15,80.335 378.817,80.5017 375.5,81C 374.661,85.778 371.995,87.278 367.5,85.5C 370.906,76.9481 373.906,68.2814 376.5,59.5 Z M 379.5,66.5 C 381.058,69.2919 382.391,72.2919 383.5,75.5C 381.235,76.6474 378.902,76.8141 376.5,76C 378.002,72.9953 379.002,69.8286 379.5,66.5 Z"/></g>
<g><path style="opacity:0.998" fill="#e2e2e2" d="M 411.5,76.5 C 410.081,75.5489 408.415,75.2155 406.5,75.5C 406.5,79.1667 406.5,82.8333 406.5,86.5C 404.833,86.5 403.167,86.5 401.5,86.5C 401.5,77.5 401.5,68.5 401.5,59.5C 406.511,59.3341 411.511,59.5007 416.5,60C 421.069,62.5414 422.569,66.3747 421,71.5C 420.07,73.5524 418.57,75.0524 416.5,76C 418.294,79.0877 419.961,82.2544 421.5,85.5C 419.579,86.641 417.579,86.8077 415.5,86C 413.467,83.1041 412.134,79.9374 411.5,76.5 Z M 413.5,64.5 C 414.167,64.8333 414.833,65.1667 415.5,65.5C 415.739,67.4672 415.406,69.3005 414.5,71C 412.19,71.4966 409.857,71.6633 407.5,71.5C 407.5,69.1667 407.5,66.8333 407.5,64.5C 409.5,64.5 411.5,64.5 413.5,64.5 Z"/></g>
<g><path style="opacity:0.998" fill="#d8d8d8" d="M 429.5,59.5 C 431.527,59.3379 433.527,59.5045 435.5,60C 437.461,63.4212 439.294,66.9212 441,70.5C 443.087,67.3272 444.921,63.9939 446.5,60.5C 448.5,59.1667 450.5,59.1667 452.5,60.5C 450,65.5 447.5,70.5 445,75.5C 444.501,79.1516 444.335,82.8183 444.5,86.5C 442.5,86.5 440.5,86.5 438.5,86.5C 438.665,83.1501 438.498,79.8168 438,76.5C 435.14,70.7802 432.307,65.1136 429.5,59.5 Z"/></g>
<g><path style="opacity:0.997" fill="#dbdbdb" d="M 469.5,59.5 C 471.792,59.2436 473.959,59.5769 476,60.5C 478.975,69.094 482.142,77.594 485.5,86C 480.94,87.6504 478.274,86.1504 477.5,81.5C 474.167,80.1667 470.833,80.1667 467.5,81.5C 466.663,86.3187 463.996,87.6521 459.5,85.5C 463.038,76.883 466.371,68.2164 469.5,59.5 Z M 471.5,67.5 C 473.383,69.7634 474.716,72.4301 475.5,75.5C 474.833,75.8333 474.167,76.1667 473.5,76.5C 472.137,75.8016 470.971,75.8016 470,76.5C 470.158,73.4981 470.658,70.4981 471.5,67.5 Z"/></g>
<g><path style="opacity:1" fill="#c4c4c4" d="M 20.5,62.5 C 23.5184,62.3354 26.5184,62.502 29.5,63C 26.3172,66.0155 23.3172,69.1822 20.5,72.5C 23.3172,75.8178 26.3172,78.9845 29.5,82C 29,82.5 28.5,83 28,83.5C 26.0257,83.3744 23.859,83.2078 21.5,83C 17.9842,79.6514 14.6508,76.1514 11.5,72.5C 14.5222,69.1467 17.5222,65.8134 20.5,62.5 Z"/></g>
<g><path style="opacity:0.999" fill="#d8d8d8" d="M 82.5,69.5 C 83.038,71.1172 83.3713,72.7839 83.5,74.5C 81.1667,77.5 78.5,80.1667 75.5,82.5C 72.9407,82.8016 70.6074,82.4682 68.5,81.5C 71.1444,78.5198 73.811,75.5198 76.5,72.5C 73.6828,69.1822 70.6828,66.0155 67.5,63C 70.5541,62.1786 73.5541,62.3452 76.5,63.5C 78.215,65.8818 80.215,67.8818 82.5,69.5 Z"/></g>
<g><path style="opacity:0.215" fill="#434343" d="M 233.5,64.5 C 231.5,64.5 229.5,64.5 227.5,64.5C 227.5,66.8333 227.5,69.1667 227.5,71.5C 229.5,71.5 231.5,71.5 233.5,71.5C 231.393,72.4682 229.059,72.8016 226.5,72.5C 226.5,69.5 226.5,66.5 226.5,63.5C 229.059,63.1984 231.393,63.5318 233.5,64.5 Z"/></g>
<g><path style="opacity:0.481" fill="#717171" d="M 413.5,64.5 C 411.5,64.5 409.5,64.5 407.5,64.5C 407.5,66.8333 407.5,69.1667 407.5,71.5C 409.857,71.6633 412.19,71.4966 414.5,71C 415.406,69.3005 415.739,67.4672 415.5,65.5C 416.811,67.5598 416.811,69.7265 415.5,72C 412.518,72.498 409.518,72.6646 406.5,72.5C 406.5,69.5 406.5,66.5 406.5,63.5C 409.059,63.1984 411.393,63.5318 413.5,64.5 Z"/></g>
<g><path style="opacity:0.505" fill="#6e6e6e" d="M 178.5,64.5 C 179.404,65.209 179.737,66.209 179.5,67.5C 177.265,67.7947 175.265,67.4614 173.5,66.5C 175.781,66.9227 177.448,66.256 178.5,64.5 Z"/></g>
<g><path style="opacity:0.996" fill="#f8f8f8" d="M 99.5,68.5 C 101.833,70.1667 103.833,72.1667 105.5,74.5C 104.833,74.5 104.5,74.8333 104.5,75.5C 104.5,77.8333 104.5,80.1667 104.5,82.5C 108.833,82.5 113.167,82.5 117.5,82.5C 117.5,83.8333 117.5,85.1667 117.5,86.5C 111.5,86.5 105.5,86.5 99.5,86.5C 99.5,80.5 99.5,74.5 99.5,68.5 Z"/></g>
<g><path style="opacity:1" fill="#fdf9ba" d="M 99.5,66.5 C 101.167,67.8333 102.833,69.1667 104.5,70.5C 104.5,71.1667 104.833,71.5 105.5,71.5C 106.167,72.5 106.833,73.5 107.5,74.5C 106.833,74.5 106.167,74.5 105.5,74.5C 103.833,72.1667 101.833,70.1667 99.5,68.5C 99.5,67.8333 99.5,67.1667 99.5,66.5 Z"/></g>
<g><path style="opacity:1" fill="#fefffe" d="M 105.5,71.5 C 108.833,71.5 112.167,71.5 115.5,71.5C 115.5,72.5 115.5,73.5 115.5,74.5C 113.167,74.5 110.833,74.5 108.5,74.5C 108.167,74.5 107.833,74.5 107.5,74.5C 106.833,73.5 106.167,72.5 105.5,71.5 Z"/></g>
<g><path style="opacity:0.878" fill="#797979" d="M 82.5,69.5 C 85.7258,70.8767 86.0591,72.5434 83.5,74.5C 83.3713,72.7839 83.038,71.1172 82.5,69.5 Z"/></g>
<g><path style="opacity:0.553" fill="#474420" d="M 104.5,75.5 C 104.5,74.8333 104.833,74.5 105.5,74.5C 106.167,74.5 106.833,74.5 107.5,74.5C 107.833,74.5 108.167,74.5 108.5,74.5C 108.5,75.1667 108.833,75.5 109.5,75.5C 110.476,76.8149 111.476,78.1482 112.5,79.5C 112.167,79.8333 111.833,80.1667 111.5,80.5C 109.408,78.3951 107.075,76.7284 104.5,75.5 Z"/></g>
<g><path style="opacity:0.381" fill="#616161" d="M 104.5,70.5 C 108.5,70.5 112.5,70.5 116.5,70.5C 116.5,72.1667 116.5,73.8333 116.5,75.5C 114.167,75.5 111.833,75.5 109.5,75.5C 108.833,75.5 108.5,75.1667 108.5,74.5C 110.833,74.5 113.167,74.5 115.5,74.5C 115.5,73.5 115.5,72.5 115.5,71.5C 112.167,71.5 108.833,71.5 105.5,71.5C 104.833,71.5 104.5,71.1667 104.5,70.5 Z"/></g>
<g><path style="opacity:0.331" fill="#606060" d="M 256.5,70.5 C 260.5,70.5 264.5,70.5 268.5,70.5C 268.5,72.1667 268.5,73.8333 268.5,75.5C 264.5,75.5 260.5,75.5 256.5,75.5C 259.962,74.5184 263.629,74.185 267.5,74.5C 267.5,73.5 267.5,72.5 267.5,71.5C 263.629,71.815 259.962,71.4816 256.5,70.5 Z"/></g>
<g><path style="opacity:0.215" fill="#494949" d="M 230.5,76.5 C 229.5,76.5 228.5,76.5 227.5,76.5C 227.813,80.0419 227.479,83.3752 226.5,86.5C 226.5,82.8333 226.5,79.1667 226.5,75.5C 228.099,75.2322 229.432,75.5655 230.5,76.5 Z"/></g>
<g><path style="opacity:0.483" fill="#7f7f7f" d="M 411.5,76.5 C 410.167,76.5 408.833,76.5 407.5,76.5C 407.813,80.0419 407.479,83.3752 406.5,86.5C 406.5,82.8333 406.5,79.1667 406.5,75.5C 408.415,75.2155 410.081,75.5489 411.5,76.5 Z"/></g>
<g><path style="opacity:0.054" fill="#161616" d="M 68.5,81.5 C 70.6074,82.4682 72.9407,82.8016 75.5,82.5C 72.9759,83.8003 70.3092,83.8003 67.5,82.5C 67.6236,81.8933 67.9569,81.56 68.5,81.5 Z"/></g>
</svg>
